<?xml version="1.0" standalone="no"?><svg xmlns="http://www.w3.org/2000/svg" viewBox="0 0 1440 320"><path fill="rgba(201,255,240,1)" fill-opacity="1" d="M0,128L20,117.3C40,107,80,85,120,85.3C160,85,200,107,240,117.3C280,128,320,128,360,106.7C400,85,440,43,480,64C520,85,560,171,600,202.7C640,235,680,213,720,181.3C760,149,800,107,840,106.7C880,107,920,149,960,181.3C1000,213,1040,235,1080,202.7C1120,171,1160,85,1200,53.3C1240,21,1280,43,1320,42.7C1360,43,1400,21,1420,10.7L1440,0L1440,320L1420,320C1400,320,1360,320,1320,320C1280,320,1240,320,1200,320C1160,320,1120,320,1080,320C1040,320,1000,320,960,320C920,320,880,320,840,320C800,320,760,320,720,320C680,320,640,320,600,320C560,320,520,320,480,320C440,320,400,320,360,320C320,320,280,320,240,320C200,320,160,320,120,320C80,320,40,320,20,320L0,320Z"></path></svg>